HIERARCHY
ROOT Hips
{
	OFFSET -3.958830 18.904000 13.208200
	CHANNELS 6 Xposition Yposition Zposition Zrotation Yrotation Xrotation 
	JOINT LHipJoint
	{
		OFFSET 0.000000 0.000000 0.000000
		CHANNELS 3 Zrotation Yrotation Xrotation
		JOINT LeftUpLeg
		{
			OFFSET 1.800000 -1.400000 0.085000
			CHANNELS 3 Zrotation Yrotation Xrotation
			JOINT LeftLeg
			{
				OFFSET 2.215000 -6.000000 0.000000
				CHANNELS 3 Zrotation Yrotation Xrotation
				JOINT LeftFoot
				{
					OFFSET 2.500000 -6.900000 0.000000
					CHANNELS 3 Zrotation Yrotation Xrotation
					JOINT LeftToeBase
					{
						OFFSET 0.200000 -0.500000 1.950000
						CHANNELS 3 Zrotation Yrotation Xrotation
						End Site
						{
							OFFSET 0.000000 0.000000 0.000000
						}
					}
				}
			}
		}
	}
	JOINT RHipJoint
	{
		OFFSET 0.000000 0.000000 0.000000
		CHANNELS 3 Zrotation Yrotation Xrotation
		JOINT RightUpLeg
		{
			OFFSET -1.800000 -1.400000 0.085000
			CHANNELS 3 Zrotation Yrotation Xrotation
			JOINT RightLeg
			{
				OFFSET -2.215000 -6.000000 0.000000
				CHANNELS 3 Zrotation Yrotation Xrotation
				JOINT RightFoot
				{
					OFFSET -2.500000 -6.900000 0.000000
					CHANNELS 3 Zrotation Yrotation Xrotation
					JOINT RightToeBase
					{
						OFFSET -0.200000 -0.500000 1.950000
						CHANNELS 3 Zrotation Yrotation Xrotation
						End Site
						{
							OFFSET 0.000000 0.000000 0.000000
						}
					}
				}
			}
		}
	}
	JOINT LowerBack
	{
		OFFSET 0.000000 0.000000 0.000000
		CHANNELS 3 Zrotation Yrotation Xrotation
		JOINT Spine
		{
			OFFSET -0.087000 1.940000 -0.288900
			CHANNELS 3 Zrotation Yrotation Xrotation
			JOINT Spine1
			{
				OFFSET 0.000000 1.950000 0.060000
				CHANNELS 3 Zrotation Yrotation Xrotation
				JOINT Neck
				{
					OFFSET 0.000000 0.000000 0.000000
					CHANNELS 3 Zrotation Yrotation Xrotation
					JOINT Neck1
					{
						OFFSET 0.000000 1.600000 0.340000
						CHANNELS 3 Zrotation Yrotation Xrotation
						JOINT Head
						{
							OFFSET 0.000000 1.667000 -0.240000
							CHANNELS 3 Zrotation Yrotation Xrotation
							End Site
							{
								OFFSET 0.000000 0.000000 0.000000
							}
						}
					}
				}
				JOINT LeftShoulder
				{
					OFFSET 0.000000 0.000000 0.000000
					CHANNELS 3 Zrotation Yrotation Xrotation
					JOINT LeftArm
					{
						OFFSET 2.700000 1.550000 -0.730000
						CHANNELS 3 Zrotation Yrotation Xrotation
						JOINT LeftForeArm
						{
							OFFSET 5.450000 0.000000 0.000000
							CHANNELS 3 Zrotation Yrotation Xrotation
							JOINT LeftHand
							{
								OFFSET 3.450000 0.000000 0.000000
								CHANNELS 3 Zrotation Yrotation Xrotation
								JOINT LeftHandIndex1
								{
									OFFSET 0.750000 0.000000 0.000000
									CHANNELS 3 Zrotation Yrotation Xrotation
									End Site
									{
										OFFSET 0.000000 0.000000 0.000000
									}
								}
							}
						}
					}
				}
				JOINT RightShoulder
				{
					OFFSET 0.000000 0.000000 0.000000
					CHANNELS 3 Zrotation Yrotation Xrotation
					JOINT RightArm
					{
						OFFSET -2.700000 1.550000 -0.730000
						CHANNELS 3 Zrotation Yrotation Xrotation
						JOINT RightForeArm
						{
							OFFSET -5.450000 0.000000 0.000000
							CHANNELS 3 Zrotation Yrotation Xrotation
							JOINT RightHand
							{
								OFFSET -3.450000 0.000000 0.000000
								CHANNELS 3 Zrotation Yrotation Xrotation
								JOINT RightHandIndex1
								{
									OFFSET -0.750000 0.000000 0.000000
									CHANNELS 3 Zrotation Yrotation Xrotation
									End Site
									{
										OFFSET 0.000000 0.000000 0.000000
									}
								}
							}
						}
					}
				}
			}
		}
	}
}
MOTION
Frames: 9
Frame Time: 0.016667
0.696240 16.133670 -3.607980 -3.300591 -11.379565 -0.157486 -15.466176 12.736737 4.004052 33.572379 3.727941 -25.000392 -4.909818 8.860125 18.973366 0.598670 6.069799 2.247634 0.287490 0.094730 0.152680 18.300037 -8.179085 3.779709 -10.418599 14.250897 -28.296874 21.056307 -17.654646 47.015877 -1.490015 -8.375770 1.590372 -0.313060 -0.116450 0.104080 -3.310303 -4.342525 -8.983553 22.815235 -22.257384 52.810864 -16.467713 -5.499866 -13.194113 11.819052 -13.915969 -15.515543 -34.470972 10.763236 40.994237 -0.938780 -0.564830 -11.811210 -14.637002 2.723128 0.662367 -50.297470 19.918947 -11.898536 10.159217 18.596522 2.667990 -3.564861 2.825788 0.534850 -0.427560 0.362860 0.263470 -8.603025 13.599287 11.985073 26.118483 -6.503335 -16.310609 -129.389753 8.000378 -28.320025 2.770056 -2.256110 0.185620 0.028230 -0.248900 0.149130 
0.639500 16.172900 -3.560030 -3.336114 -10.056013 2.194708 -15.609377 13.132202 3.985437 31.572357 3.406574 -26.771685 -3.186709 7.797120 16.529726 0.554583 5.463482 2.446532 0.267810 0.057060 0.156060 18.136978 -7.831453 3.903464 -9.900948 14.594334 -29.773854 21.106837 -17.038115 45.988355 -1.414180 -8.085521 1.684209 -0.352410 -0.118240 0.119990 -2.852299 -5.608682 -9.099889 21.099724 -21.114076 52.509768 -14.532350 -3.035619 -19.372239 11.884073 -13.518826 -15.730941 -34.186320 10.460175 43.954399 -1.827710 -0.013880 -7.936370 -15.266340 4.592794 0.700923 -50.529294 24.494643 -12.594809 10.823291 15.470154 2.410848 -3.566771 2.808955 0.523210 -0.411700 0.359500 0.251700 -7.617338 13.399995 11.477586 24.316684 -7.776358 -16.123764 -133.279499 -1.627159 -5.433424 2.939343 -2.430439 0.202650 -0.010160 -0.240130 0.144440 
0.589610 16.230560 -3.534370 -3.242434 -9.331272 4.867655 -15.758710 13.294759 4.136160 30.317892 3.081830 -29.849911 -2.878956 7.674870 17.282733 0.531153 5.366546 2.468321 0.220560 -0.000220 0.121460 18.017291 -7.491471 3.993041 -8.863074 15.104884 -31.469589 19.821789 -15.772619 45.137939 -1.293495 -7.665992 1.812778 -0.395630 -0.089230 0.165240 -2.470472 -6.539180 -9.260569 18.971788 -19.123635 52.412876 -11.925793 -0.542429 -23.923539 11.304624 -13.010545 -15.597042 -32.503723 9.485878 44.269649 -2.019070 1.021560 -5.187070 -13.488613 6.360402 1.236946 -51.460166 27.553578 -13.292688 7.798531 11.702275 1.475785 -3.597660 2.775705 0.507110 -0.364630 0.346160 0.241030 -7.608512 12.578980 10.506861 22.484734 -8.459907 -16.378718 -136.741412 -10.577860 18.979376 3.134072 -2.560055 0.211040 -0.058870 -0.207850 0.143680 
0.536160 16.323030 -3.533820 -2.550742 -9.428968 6.915156 -15.861771 13.229121 4.413899 29.761993 2.593912 -32.446967 -4.902845 8.353189 19.286789 0.534816 5.692903 2.366776 0.153480 -0.084710 0.087620 17.953435 -7.300238 4.010122 -7.787666 15.443623 -32.721330 17.238238 -13.837062 44.327883 -1.118349 -7.064111 2.011827 -0.442490 -0.033850 0.175190 -2.239658 -6.894597 -9.403351 15.977376 -16.305474 52.647428 -9.294348 1.439413 -27.293778 10.389765 -12.633608 -15.547416 -31.515985 8.936788 44.339261 -0.554040 1.050010 -2.976520 -10.776559 7.248179 1.944638 -53.546013 28.061814 -13.746986 7.073633 10.658707 1.317247 -3.658370 2.723317 0.502980 -0.321850 0.317000 0.226000 -7.806775 12.198226 9.784698 21.423329 -8.406192 -16.710272 -140.999535 -18.149893 42.046101 3.302992 -2.587569 0.184150 -0.057130 -0.169310 0.139070 
0.490700 16.426280 -3.551880 -1.731924 -9.347069 7.682808 -15.858189 12.968418 4.758582 29.580007 1.907138 -34.582952 -8.064977 9.661267 22.717095 0.600859 6.303972 2.143767 0.131640 -0.091520 0.072240 17.975581 -7.409508 3.891142 -6.603955 15.041693 -32.470573 14.559546 -11.823491 42.843619 -0.950989 -6.367067 2.236823 -0.460680 -0.037610 0.174380 -2.278962 -6.478055 -9.475371 13.600233 -14.050856 52.761799 -8.192920 2.456482 -27.997823 9.382146 -11.851945 -15.421368 -29.886232 7.985488 45.128642 1.377250 0.129610 -2.940440 -8.687145 6.428144 2.884067 -54.099645 26.502302 -13.415509 6.855793 10.125314 1.233481 -3.652803 2.731935 0.495540 -0.321680 0.322800 0.212540 -7.643963 12.192038 9.151548 22.295272 -8.746870 -17.806180 -145.574706 -22.057919 57.068133 3.399301 -2.615297 0.195610 -0.070980 -0.163470 0.145060 
0.449240 16.535070 -3.581830 -1.156367 -9.556901 6.896539 -15.791503 12.635578 5.081708 29.911478 1.341889 -35.088472 -12.114388 11.513031 26.137006 0.691488 7.194484 1.822918 0.184220 -0.030640 0.111990 18.047702 -7.689662 3.674579 -5.023386 14.332451 -30.748706 11.784436 -9.977801 41.523031 -0.849465 -5.761618 2.417200 -0.422280 -0.079940 0.177820 -2.478195 -5.645848 -9.484732 11.801595 -12.699563 53.096812 -8.226215 2.558319 -25.766632 8.492882 -11.168157 -15.306487 -28.856912 7.511049 46.398564 2.794350 -0.719820 -5.069150 -8.958834 4.078368 3.723716 -52.277153 24.211504 -12.313049 7.109585 10.594798 1.165606 -3.601055 2.782371 0.525000 -0.353230 0.357250 0.211970 -5.840247 13.002832 8.742638 22.165538 -8.123891 -18.510759 -151.040402 -21.793017 62.809837 3.369948 -2.709074 0.206410 -0.073620 -0.186850 0.133190 
0.429030 16.662530 -3.628040 -0.598706 -9.744780 4.893122 -15.763820 12.526170 5.308265 29.550909 0.851957 -34.911396 -15.629819 13.637867 29.850969 0.874602 8.074477 1.513059 0.267330 0.083730 0.152280 18.061443 -7.981668 3.365075 -3.490913 13.162623 -27.936869 8.818615 -8.216372 40.268045 -0.781860 -5.226258 2.587223 -0.374190 -0.145950 0.191600 -2.531599 -5.179394 -9.436978 9.314425 -11.189086 55.157490 -7.881403 2.725561 -22.228385 8.524403 -10.861919 -15.137545 -28.261137 6.853204 46.751083 3.050660 -1.359520 -8.913120 -9.625900 2.792206 3.373626 -50.511097 20.418133 -11.196854 8.234101 10.428825 1.153575 -3.523841 2.875780 0.529630 -0.401980 0.409870 0.228050 -5.506040 13.613397 9.098378 22.083348 -7.457061 -18.398513 -152.641904 -16.078875 46.194358 3.206844 -2.838586 0.260240 -0.093090 -0.233570 0.146290 
0.425060 16.791430 -3.673190 -0.182838 -9.755648 1.166432 -15.764415 12.712671 5.347200 28.477120 0.300082 -33.439569 -17.973042 15.895158 34.155939 1.131398 8.962029 1.266216 0.294630 0.147180 0.118630 18.023404 -8.308663 2.928333 -2.066791 11.205387 -23.522576 6.078726 -6.858695 39.052109 -0.711997 -4.880107 2.741404 -0.340990 -0.124320 0.178020 -2.459852 -5.160499 -9.234299 6.351442 -9.747253 59.134870 -6.211643 2.206232 -16.443581 8.736505 -12.072147 -15.009008 -29.709086 6.614291 42.197411 4.342980 -2.335060 -12.889020 -10.379135 2.568959 2.247477 -49.125410 16.277991 -10.531607 6.898260 7.766011 0.649458 -3.454413 2.935833 0.485380 -0.411180 0.393710 0.264580 -5.456298 14.286784 10.353086 19.313671 -6.725609 -16.199028 -150.939359 -6.899323 7.738810 2.838215 -2.812873 0.281460 -0.069830 -0.255050 0.189650 
0.427310 16.904710 -3.716370 -0.137855 -9.474841 -1.654543 -15.734430 12.774752 5.362279 26.956382 -0.542019 -32.381126 -19.927212 17.775552 37.517824 1.376181 9.667461 1.106823 0.290330 0.151080 0.102850 18.018150 -8.598158 2.645832 -1.240001 9.524686 -20.641831 4.117949 -6.164200 38.330522 -0.670695 -4.743406 2.816048 -0.331880 -0.107650 0.166370 -2.474805 -4.963539 -9.069123 4.812323 -8.332781 61.826141 -5.711290 1.560718 -10.517702 9.129743 -12.447258 -15.215795 -29.031687 5.574628 38.022094 5.018570 -3.520690 -14.737400 -8.081370 1.518394 2.378037 -49.581751 12.382770 -10.366207 5.218414 2.612813 0.120336 -3.370021 2.984714 0.444830 -0.400280 0.367430 0.285480 -8.585560 15.359095 11.041469 19.746255 -7.278443 -17.333473 -144.355579 -1.044988 -18.472116 2.689602 -2.662602 0.279490 -0.065890 -0.276090 0.205810 
